<svg width="100" height="48" viewBox="0 0 100 48" fill="none" xmlns="http://www.w3.org/2000/svg">
<path d="M27.0376 23.8699C26.2386 24.622 25.2281 25.5502 24.006 26.6548C22.8075 27.7358 21.5619 28.8639 20.2694 30.0389C19.0004 31.2139 17.7901 32.3655 16.6385 33.4935C15.487 34.6215 14.5587 35.5968 13.8537 36.4193C13.5952 37.1009 13.2544 37.6884 12.8314 38.1819C12.4084 38.6754 11.9971 38.9222 11.5976 38.9222C11.2921 38.9222 11.1394 38.7929 11.1394 38.5344C11.1394 38.3699 11.1864 38.2289 11.2804 38.1114C11.3744 37.9939 11.4684 37.8764 11.5624 37.7589C11.6799 37.6414 11.7739 37.5004 11.8444 37.3359C11.9384 37.1949 11.9854 37.0186 11.9854 36.8071C11.9854 36.0551 11.8561 35.3853 11.5976 34.7978C11.3391 34.2338 10.9749 33.752 10.5048 33.3525C10.0583 32.953 9.51781 32.6592 8.88329 32.4712C8.27227 32.2597 7.61425 32.154 6.90923 32.154C6.67422 32.154 6.33346 32.2245 5.88694 32.3655C5.46393 32.483 4.98216 32.6357 4.44165 32.8237C3.90113 33.0117 3.33711 33.1762 2.74959 33.3172C2.13857 33.4818 1.5628 33.564 1.02229 33.564C0.740277 33.564 0.50527 33.517 0.317264 33.423C0.105757 33.329 3.74226e-06 33.188 3.74226e-06 33C3.74226e-06 32.812 0.141008 32.6592 0.423017 32.5417C0.705026 32.4007 1.06929 32.2832 1.5158 32.1892C1.96232 32.0952 2.45583 32.0247 2.99635 31.9777C3.51337 31.9307 4.03038 31.8954 4.5474 31.8719C5.06442 31.8249 5.53443 31.8014 5.95744 31.8014C6.38046 31.7779 6.69772 31.7544 6.90923 31.7309C8.08426 31.3549 9.1653 30.6852 10.1523 29.7216C11.1394 28.7346 12.0911 27.5713 13.0077 26.2318C13.9242 24.8922 14.8407 23.4352 15.7573 21.8606C16.6738 20.2626 17.6373 18.6645 18.6479 17.0665C17.9193 16.949 17.2261 16.7492 16.568 16.4672C15.91 16.1617 15.3225 15.7739 14.8055 15.3039C14.312 14.8339 13.9125 14.2934 13.6069 13.6824C13.3249 13.0478 13.1839 12.3546 13.1839 11.6025C13.1839 11.109 13.2779 10.639 13.4659 10.1925C13.6774 9.72249 13.9477 9.32297 14.2767 8.99396C14.6057 8.66495 15.0052 8.40645 15.4753 8.21844C15.9453 8.00693 16.4388 7.90118 16.9558 7.90118C17.4023 7.90118 17.8253 7.95993 18.2248 8.07744C18.6479 8.17144 19.0004 8.28894 19.2824 8.42995L19.1414 8.81771C18.8594 8.6767 18.5303 8.5592 18.1543 8.4652C17.7783 8.37119 17.3671 8.32419 16.9205 8.32419C16.427 8.32419 15.9688 8.4182 15.5458 8.6062C15.1462 8.79421 14.8055 9.05272 14.5235 9.38173C14.2415 9.68724 14.0182 10.0397 13.8537 10.4393C13.6892 10.8153 13.6069 11.203 13.6069 11.6025C13.6069 12.2606 13.7479 12.8833 14.03 13.4709C14.3355 14.0584 14.735 14.5871 15.2285 15.0572C15.722 15.5037 16.286 15.8679 16.9205 16.1499C17.5786 16.432 18.2601 16.5965 18.9651 16.6435C19.6231 15.6329 20.4104 14.6106 21.3269 13.5766C22.267 12.5426 23.2893 11.6025 24.3938 10.7565C25.4983 9.91049 26.6616 9.22897 27.8836 8.71196C29.1057 8.17144 30.3512 7.90118 31.6203 7.90118C32.5133 7.90118 33.2183 8.10094 33.7353 8.50045C34.2759 8.89996 34.5461 9.52273 34.5461 10.3688C34.5461 11.1443 34.2406 11.9433 33.6296 12.7658C33.0186 13.5884 32.1725 14.3521 31.0915 15.0572C30.034 15.7387 28.7767 16.3027 27.3196 16.7492C25.8626 17.1722 24.2998 17.3837 22.6312 17.3837C22.2317 17.3837 21.891 17.3837 21.6089 17.3837C21.3269 17.3602 21.0332 17.3367 20.7277 17.3132C19.8581 18.6763 18.9769 20.0863 18.0838 21.5434C17.2143 22.9769 16.2508 24.3517 15.1932 25.6677C14.1592 26.9603 13.0077 28.1471 11.7386 29.2281C10.4931 30.3091 9.05954 31.1669 7.43799 31.8014L7.50849 31.8719C7.6965 31.8484 7.89626 31.8249 8.10776 31.8014C8.34277 31.7779 8.61303 31.7662 8.91854 31.7662C10.5166 31.7662 11.7034 32.154 12.4789 32.9295C13.2779 33.705 13.7597 34.6568 13.9242 35.7848C14.8642 34.7273 15.8748 33.6815 16.9558 32.6475C18.0368 31.6134 19.1414 30.5912 20.2694 29.5806C21.3974 28.5701 22.5137 27.5713 23.6183 26.5843C24.7463 25.5737 25.8273 24.5985 26.8614 23.6584L27.0376 23.8699ZM31.2325 8.32419C30.175 8.32419 29.1292 8.61795 28.0952 9.20547C27.0611 9.76949 26.0976 10.4863 25.2046 11.3558C24.3115 12.2018 23.489 13.1301 22.737 14.1406C22.0085 15.1277 21.3974 16.0442 20.9039 16.8902C21.1624 16.9137 21.4327 16.9372 21.7147 16.9607C21.9967 16.9607 22.3257 16.9607 22.7017 16.9607C23.7593 16.9607 24.8991 16.8197 26.1211 16.5377C27.3666 16.2557 28.5182 15.8444 29.5757 15.3039C30.6567 14.7399 31.5498 14.0584 32.2548 13.2594C32.9833 12.4368 33.3476 11.485 33.3476 10.404C33.3476 9.72249 33.1596 9.20547 32.7836 8.85296C32.431 8.50045 31.914 8.32419 31.2325 8.32419ZM33.1947 22.0016C33.1947 21.6726 33.1007 21.4259 32.9127 21.2614C32.7482 21.0969 32.5367 21.0146 32.2782 21.0146C31.7847 21.0146 31.2442 21.2144 30.6566 21.6139C30.0926 21.9899 29.5286 22.4716 28.9646 23.0592C28.4006 23.6232 27.8836 24.2342 27.4135 24.8922C26.967 25.5502 26.6263 26.1378 26.3913 26.6548C26.9083 26.5608 27.5545 26.3845 28.3301 26.126C29.1056 25.844 29.8459 25.5032 30.5509 25.1037C31.2794 24.7042 31.9022 24.246 32.4192 23.7289C32.9362 23.1884 33.1947 22.6127 33.1947 22.0016ZM38.9054 23.8699C38.5529 24.4575 38.1064 25.1037 37.5659 25.8088C37.0488 26.5138 36.4496 27.2188 35.7681 27.9238C35.11 28.6053 34.3933 29.2751 33.6177 29.9331C32.8657 30.5677 32.0784 31.1434 31.2559 31.6604C30.4334 32.154 29.5991 32.5535 28.7531 32.859C27.9306 33.141 27.1198 33.282 26.3208 33.282C25.3337 33.282 24.5699 33.0352 24.0294 32.5417C23.4889 32.0247 23.2187 31.2962 23.2187 30.3561C23.2187 29.3221 23.5242 28.2411 24.1352 27.113C24.7697 25.9615 25.5687 24.904 26.5323 23.9404C27.4958 22.9769 28.5533 22.1779 29.7049 21.5434C30.8564 20.9088 31.9609 20.5916 33.0185 20.5916C33.606 20.5916 34.0643 20.7208 34.3933 20.9793C34.7223 21.2144 34.8868 21.5669 34.8868 22.0369C34.8868 22.6009 34.5813 23.1532 33.9703 23.6937C33.3592 24.2107 32.6072 24.6925 31.7142 25.139C30.8447 25.562 29.9046 25.9498 28.8941 26.3023C27.8836 26.6313 26.9905 26.878 26.215 27.0425C25.9565 27.5126 25.745 28.0413 25.5805 28.6288C25.416 29.2164 25.3337 29.8039 25.3337 30.3914C25.3337 30.6734 25.3572 30.9554 25.4042 31.2374C25.4747 31.4959 25.5687 31.7427 25.6862 31.9777C25.8272 32.1892 26.0035 32.3655 26.215 32.5065C26.45 32.6475 26.732 32.718 27.061 32.718C27.8366 32.718 28.7413 32.4712 29.7754 31.9777C30.8329 31.4607 31.9022 30.7792 32.9832 29.9331C34.0643 29.0871 35.0983 28.1236 36.0853 27.0425C37.0724 25.9615 37.9184 24.8452 38.6234 23.6937L38.9054 23.8699Z" fill="white"/>
<path d="M41.6263 33.12V15.798H45.3887L52.6403 29.2086V15.798H55.5211V33.12H51.7587L44.5071 19.7094V33.12H41.6263ZM58.8862 33.12V15.798H61.9036V33.12H58.8862ZM65.2686 33.12V15.798H71.7877C76.916 15.798 79.8713 19.3866 79.8713 24.4404C79.8713 29.4445 76.9781 33.12 71.6759 33.12H65.2686ZM71.4027 30.649C74.8299 30.649 76.8167 28.3518 76.8167 24.4156C76.8167 20.6531 75.0162 18.269 71.4027 18.269H68.286V30.649H71.4027ZM89.9541 33.4429C84.9003 33.4429 81.8456 29.8171 81.8456 24.4031C81.8456 18.9644 84.9003 15.4752 89.9541 15.4752C94.9955 15.4752 98.0501 18.9644 98.0501 24.4031C98.0501 29.8171 95.0079 33.4429 89.9541 33.4429ZM89.9541 30.9346C93.0956 30.9346 94.983 28.1407 94.983 24.4031C94.983 20.7028 93.1453 17.9834 89.9541 17.9834C86.7504 17.9834 84.9127 20.7028 84.9127 24.4031C84.9127 28.1407 86.8001 30.9346 89.9541 30.9346Z" fill="#E1E1E1"/>
<g clip-path="url(#clip0_86_18)">
<path d="M58.7515 45.8872C58.4368 45.6914 58.1907 45.4252 58.0099 45.0886V46.0496H56.853V39.3779H58.0099V41.9529C58.1907 41.6163 58.4351 41.3485 58.7465 41.1459C59.0579 40.9433 59.4028 40.8429 59.7828 40.8429C60.2684 40.8429 60.6903 40.9534 61.0519 41.1743C61.4118 41.3953 61.6948 41.7084 61.8957 42.1119C62.0983 42.5171 62.1987 42.9825 62.1987 43.5115C62.1987 44.0406 62.0999 44.5077 61.9007 44.9112C61.7015 45.3163 61.4202 45.6277 61.0569 45.8487C60.6936 46.0697 60.2717 46.1802 59.7929 46.1802C59.4128 46.1802 59.0663 46.0831 58.7532 45.8856L58.7515 45.8872ZM58.2108 44.496C58.3447 44.7354 58.5255 44.9246 58.7515 45.0652C58.9792 45.2058 59.2253 45.2745 59.4932 45.2745C59.7795 45.2745 60.0356 45.2008 60.2633 45.0552C60.491 44.9095 60.6651 44.7019 60.7857 44.434C60.9062 44.1662 60.9682 43.8581 60.9682 43.5099C60.9682 43.1616 60.9079 42.8452 60.7857 42.5807C60.6651 42.3162 60.4894 42.1119 60.2633 41.9646C60.0356 41.8189 59.7795 41.7453 59.4932 41.7453C59.2069 41.7453 58.9675 41.8172 58.7381 41.9595C58.5071 42.1019 58.3296 42.2961 58.2024 42.5388C58.0752 42.7816 58.0115 43.0428 58.0115 43.3224V43.6857C58.0115 43.9837 58.0785 44.2532 58.2124 44.4926L58.2108 44.496Z" fill="#E1E1E1"/>
<path d="M62.6707 47.9401C62.4865 47.8999 62.3208 47.8447 62.1718 47.776L62.3777 46.8334C62.5083 46.9272 62.6372 46.9975 62.7644 47.0427C62.8917 47.0896 63.0273 47.113 63.1696 47.113C63.3872 47.113 63.5614 47.0611 63.6919 46.959C63.8225 46.8569 63.9414 46.6777 64.0469 46.4233L64.298 45.8256L64.308 46.1336L62.1148 40.9737H63.3738L64.457 43.5771C64.6061 43.9136 64.7433 44.287 64.8672 44.6972C65.0162 44.3054 65.1652 43.9421 65.3159 43.6056L66.0526 41.8694C66.0643 41.8376 66.0743 41.8159 66.081 41.8041C66.0877 41.7924 66.0961 41.7723 66.1095 41.7489C66.1647 41.5999 66.2099 41.471 66.2451 41.3621C66.2786 41.2533 66.3054 41.1244 66.3238 40.9754H67.4254L64.9995 46.6392C64.7818 47.1315 64.5374 47.4814 64.2662 47.689C63.995 47.8966 63.64 48.002 63.198 48.002C63.0306 48.002 62.8548 47.982 62.6707 47.9418V47.9401Z" fill="#E1E1E1"/>
<path d="M71.283 45.8872C70.9682 45.6914 70.7221 45.4252 70.5413 45.0886V46.0496H69.3844V39.3779H70.5413V41.9529C70.7221 41.6163 70.9666 41.3485 71.278 41.1459C71.5894 40.9433 71.9343 40.8429 72.3143 40.8429C72.7998 40.8429 73.2217 40.9534 73.5834 41.1743C73.9433 41.3953 74.2262 41.7084 74.4272 42.1119C74.6297 42.5171 74.7302 42.9825 74.7302 43.5115C74.7302 44.0406 74.6314 44.5077 74.4322 44.9112C74.2329 45.3163 73.9517 45.6277 73.5884 45.8487C73.2251 46.0697 72.8032 46.1802 72.3243 46.1802C71.9443 46.1802 71.5977 46.0831 71.2847 45.8856L71.283 45.8872ZM70.7422 44.496C70.8762 44.7354 71.057 44.9246 71.283 45.0652C71.5107 45.2058 71.7568 45.2745 72.0247 45.2745C72.311 45.2745 72.5671 45.2008 72.7948 45.0552C73.0225 44.9095 73.1966 44.7019 73.3172 44.434C73.4377 44.1662 73.4996 43.8581 73.4996 43.5099C73.4996 43.1616 73.4394 42.8452 73.3172 42.5807C73.1966 42.3162 73.0208 42.1119 72.7948 41.9646C72.5671 41.8189 72.311 41.7453 72.0247 41.7453C71.7384 41.7453 71.499 41.8172 71.2696 41.9595C71.0386 42.1019 70.8611 42.2961 70.7339 42.5388C70.6066 42.7816 70.543 43.0428 70.543 43.3224V43.6857C70.543 43.9837 70.61 44.2532 70.7439 44.4926L70.7422 44.496Z" fill="#E1E1E1"/>
<path d="M76.3173 45.8304C75.9122 45.5977 75.6041 45.2745 75.3881 44.8644C75.1738 44.4542 75.0667 44.0005 75.0667 43.5016C75.0667 43.0026 75.1755 42.5523 75.3932 42.1488C75.6108 41.7436 75.9222 41.4255 76.3257 41.1928C76.7308 40.9601 77.203 40.8429 77.7437 40.8429C78.2845 40.8429 78.7516 40.9618 79.1618 41.1978C79.572 41.4339 79.8867 41.7537 80.1044 42.1538C80.322 42.5556 80.4308 43.0043 80.4308 43.5016C80.4308 43.9988 80.322 44.4609 80.1044 44.8694C79.8867 45.2762 79.5736 45.5977 79.1668 45.8304C78.76 46.0631 78.2845 46.1803 77.7437 46.1803C77.203 46.1803 76.7208 46.0631 76.3156 45.8304H76.3173ZM78.5206 45.0837C78.7449 44.9246 78.9157 44.707 79.0345 44.4307C79.1534 44.1545 79.212 43.8448 79.212 43.5016C79.212 43.1583 79.1534 42.852 79.0345 42.5774C78.9157 42.3045 78.7466 42.0885 78.5256 41.9328C78.3046 41.7771 78.0451 41.7001 77.7471 41.7001C77.4491 41.7001 77.1896 41.7771 76.9719 41.9328C76.7543 42.0885 76.5885 42.3028 76.478 42.5774C76.3659 42.8503 76.3106 43.1583 76.3106 43.5016C76.3106 43.8448 76.3659 44.1612 76.478 44.4341C76.5902 44.7087 76.7543 44.9246 76.9719 45.082C77.1896 45.2411 77.4441 45.3197 77.737 45.3197C78.03 45.3197 78.2962 45.2411 78.5206 45.082V45.0837Z" fill="#E1E1E1"/>
<path d="M81.0403 40.9731H82.1972V42.3359C82.3211 42.0429 82.4902 41.7834 82.7011 41.5574C82.9121 41.3297 83.1531 41.1539 83.4244 41.03C83.6956 40.9061 83.9819 40.8442 84.2883 40.8442C84.6733 40.8442 84.9998 40.9212 85.2677 41.0769C85.5355 41.2326 85.7348 41.4419 85.8654 41.7064C85.9959 41.9709 86.0612 42.2706 86.0612 42.6071V44.8372C86.0612 45.2792 86.0797 45.6826 86.1165 46.051H84.9027V42.803C84.9027 42.4615 84.819 42.202 84.6516 42.0245C84.4841 41.847 84.2246 41.7583 83.8764 41.7583C83.6085 41.7583 83.3457 41.8403 83.0879 42.0061C82.83 42.1702 82.6174 42.4062 82.4483 42.7109C82.2809 43.0156 82.1972 43.3639 82.1972 43.7556V46.051H81.0403V40.9731Z" fill="#E1E1E1"/>
<path d="M87.7906 45.8487C87.4273 45.6277 87.1461 45.3147 86.9468 44.9112C86.7476 44.506 86.6488 44.0406 86.6488 43.5115C86.6488 42.9825 86.7476 42.5171 86.9468 42.1119C87.1461 41.7067 87.4273 41.3953 87.7906 41.1743C88.1539 40.9534 88.5758 40.8429 89.0547 40.8429C89.4347 40.8429 89.7813 40.94 90.0943 41.1375C90.4091 41.3334 90.6552 41.5996 90.836 41.9361V39.3779H91.9929V44.8358C91.9929 45.2778 92.0113 45.6813 92.0481 46.0496H90.8343V45.0702C90.6535 45.4067 90.4074 45.6746 90.0977 45.8772C89.7863 46.0798 89.4414 46.1802 89.0614 46.1802C88.5758 46.1802 88.1523 46.0697 87.7873 45.8487H87.7906ZM88.0619 44.4407C88.1824 44.7052 88.3565 44.9112 88.5842 45.0568C88.8119 45.2025 89.0714 45.2761 89.3627 45.2761C89.6306 45.2761 89.8767 45.2042 90.1044 45.0619C90.3321 44.9195 90.5095 44.7253 90.6401 44.4826C90.7707 44.2398 90.836 43.9786 90.836 43.699V43.3357C90.836 43.0377 90.7691 42.7682 90.6351 42.5288C90.5012 42.2894 90.3187 42.1002 90.0893 41.9595C89.8583 41.8189 89.6172 41.7503 89.361 41.7503C89.0681 41.7503 88.8086 41.8239 88.5825 41.9696C88.3548 42.1153 88.1807 42.3229 88.0602 42.5907C87.9396 42.8586 87.8777 43.1667 87.8777 43.5149C87.8777 43.8631 87.938 44.1795 88.0602 44.4441L88.0619 44.4407Z" fill="#E1E1E1"/>
<path d="M93.7725 45.8487C93.4092 45.6277 93.1279 45.3147 92.9287 44.9112C92.7295 44.506 92.6307 44.0406 92.6307 43.5115C92.6307 42.9825 92.7295 42.5171 92.9287 42.1119C93.1279 41.7067 93.4092 41.3953 93.7725 41.1743C94.1358 40.9534 94.5577 40.8429 95.0365 40.8429C95.4166 40.8429 95.7631 40.94 96.0762 41.1375C96.3909 41.3334 96.637 41.5996 96.8179 41.9361V39.3779H97.9747V44.8358C97.9747 45.2778 97.9932 45.6813 98.03 46.0496H96.8162V45.0702C96.6354 45.4067 96.3893 45.6746 96.0795 45.8772C95.7681 46.0798 95.4233 46.1802 95.0432 46.1802C94.5577 46.1802 94.1341 46.0697 93.7691 45.8487H93.7725ZM94.042 44.4407C94.1626 44.7052 94.3367 44.9112 94.5644 45.0568C94.7921 45.2025 95.0516 45.2761 95.3429 45.2761C95.6108 45.2761 95.8569 45.2042 96.0846 45.0619C96.3123 44.9195 96.4897 44.7253 96.6203 44.4826C96.7509 44.2398 96.8162 43.9786 96.8162 43.699V43.3357C96.8162 43.0377 96.7492 42.7682 96.6153 42.5288C96.4813 42.2894 96.2989 42.1002 96.0695 41.9595C95.8385 41.8189 95.5974 41.7503 95.3412 41.7503C95.0482 41.7503 94.7887 41.8239 94.5627 41.9696C94.335 42.1153 94.1609 42.3229 94.0404 42.5907C93.9198 42.8586 93.8579 43.1667 93.8579 43.5149C93.8579 43.8631 93.9181 44.1795 94.0404 44.4441L94.042 44.4407Z" fill="#E1E1E1"/>
</g>
<defs>
<clipPath id="clip0_86_18">
<rect width="41.1787" height="8.62216" fill="white" transform="translate(56.8523 39.3778)"/>
</clipPath>
</defs>
</svg>
